<mxfile host="65bd71144e">
    <diagram id="yI8UwpHXkwJjkRVIYegP" name="Draft">
        <mxGraphModel dx="1049" dy="790" grid="1" gridSize="10" guides="1" tooltips="1" connect="1" arrows="1" fold="1" page="1" pageScale="1" pageWidth="827" pageHeight="1169" background="none" math="0" shadow="0">
            <root>
                <mxCell id="0"/>
                <mxCell id="1" parent="0"/>
                <mxCell id="2" value="" style="swimlane;childLayout=stackLayout;horizontal=1;fillColor=none;horizontalStack=1;resizeParent=1;resizeParentMax=0;resizeLast=0;collapsible=0;strokeColor=none;stackBorder=10;stackSpacing=-12;resizable=1;align=center;points=[];fontColor=#000000;shadow=1;" parent="1" vertex="1">
                    <mxGeometry x="70" y="130" width="1250" height="100" as="geometry"/>
                </mxCell>
                <mxCell id="3" value="DISEÑO" style="shape=step;perimeter=stepPerimeter;fixedSize=1;points=[];fillColor=#B3FF66;fontColor=#ffffff;strokeColor=#2D7600;shadow=1;" parent="2" vertex="1">
                    <mxGeometry x="10" y="33" width="390" height="57" as="geometry"/>
                </mxCell>
                <mxCell id="4" value="IMPLEMENTACIÓN" style="shape=step;perimeter=stepPerimeter;fixedSize=1;points=[];fillColor=#e3c800;fontColor=#000000;strokeColor=#B09500;shadow=1;" parent="2" vertex="1">
                    <mxGeometry x="388" y="33" width="362" height="57" as="geometry"/>
                </mxCell>
                <mxCell id="5" value="GESTIÓN" style="shape=step;perimeter=stepPerimeter;fixedSize=1;points=[];fillColor=#A20025;fontColor=#ffffff;strokeColor=#6F0000;shadow=1;" parent="2" vertex="1">
                    <mxGeometry x="738" y="33" width="502" height="57" as="geometry"/>
                </mxCell>
                <mxCell id="6" value="" style="swimlane;childLayout=stackLayout;horizontal=1;fillColor=none;horizontalStack=1;resizeParent=1;resizeParentMax=0;resizeLast=0;collapsible=0;strokeColor=none;stackBorder=10;stackSpacing=-12;resizable=1;align=center;points=[];fontColor=#000000;shadow=1;" parent="1" vertex="1">
                    <mxGeometry x="70" y="190" width="1240" height="70" as="geometry"/>
                </mxCell>
                <mxCell id="14" value="1. Planificación e identificación" style="shape=step;perimeter=stepPerimeter;fixedSize=1;points=[];fillColor=#b1ddf0;strokeColor=#10739e;size=10;shadow=1;" parent="6" vertex="1">
                    <mxGeometry x="10" y="33" width="180" height="27" as="geometry"/>
                </mxCell>
                <mxCell id="7" value="2. Diseño" style="shape=step;perimeter=stepPerimeter;fixedSize=1;points=[];fillColor=#b0e3e6;strokeColor=#0e8088;size=12;shadow=1;" parent="6" vertex="1">
                    <mxGeometry x="178" y="33" width="100" height="27" as="geometry"/>
                </mxCell>
                <mxCell id="10" value="3. Validación" style="shape=step;perimeter=stepPerimeter;fixedSize=1;points=[];fillColor=#b0e3e6;strokeColor=#0e8088;size=14;shadow=1;" parent="6" vertex="1">
                    <mxGeometry x="266" y="33" width="134" height="27" as="geometry"/>
                </mxCell>
                <mxCell id="34" value="4. Creacción" style="shape=step;perimeter=stepPerimeter;fixedSize=1;points=[];fillColor=#b0e3e6;strokeColor=#0e8088;size=12;shadow=1;" parent="6" vertex="1">
                    <mxGeometry x="388" y="33" width="132" height="27" as="geometry"/>
                </mxCell>
                <mxCell id="42" value="6. Implementación" style="shape=step;perimeter=stepPerimeter;fixedSize=1;points=[];fillColor=#b0e3e6;strokeColor=#0e8088;size=12;shadow=1;" parent="6" vertex="1">
                    <mxGeometry x="508" y="33" width="242" height="27" as="geometry"/>
                </mxCell>
                <mxCell id="47" value="7. Publicación" style="shape=step;perimeter=stepPerimeter;fixedSize=1;points=[];fillColor=#b0e3e6;strokeColor=#0e8088;size=12;shadow=1;" parent="6" vertex="1">
                    <mxGeometry x="738" y="33" width="150" height="27" as="geometry"/>
                </mxCell>
                <mxCell id="49" value="8. Monitorizacion" style="shape=step;perimeter=stepPerimeter;fixedSize=1;points=[];fillColor=#b0e3e6;strokeColor=#0e8088;size=12;shadow=1;" parent="6" vertex="1">
                    <mxGeometry x="876" y="33" width="134" height="27" as="geometry"/>
                </mxCell>
                <mxCell id="50" value="9. Analítica" style="shape=step;perimeter=stepPerimeter;fixedSize=1;points=[];fillColor=#b0e3e6;strokeColor=#0e8088;size=12;shadow=1;" parent="6" vertex="1">
                    <mxGeometry x="998" y="33" width="102" height="27" as="geometry"/>
                </mxCell>
                <mxCell id="54" value="9.Retirada" style="shape=step;perimeter=stepPerimeter;fixedSize=1;points=[];fillColor=#b0e3e6;strokeColor=#0e8088;size=12;shadow=1;" parent="6" vertex="1">
                    <mxGeometry x="1088" y="33" width="142" height="27" as="geometry"/>
                </mxCell>
                <mxCell id="86" style="edgeStyle=none;html=1;shadow=1;strokeWidth=11;rounded=1;" parent="6" source="50" target="14" edge="1">
                    <mxGeometry relative="1" as="geometry">
                        <mxPoint x="70" y="310" as="targetPoint"/>
                        <Array as="points">
                            <mxPoint x="1049" y="330"/>
                            <mxPoint x="570" y="330"/>
                            <mxPoint x="100" y="330"/>
                        </Array>
                    </mxGeometry>
                </mxCell>
                <mxCell id="27" value="Definir y validar la interfce de los recursos (operaciones, input, output, codigos de retorno HTTP...)" style="shape=ext;rounded=1;html=1;whiteSpace=wrap;dashed=1;fillColor=default;gradientColor=none;shadow=1;" parent="1" vertex="1">
                    <mxGeometry x="260" y="260" width="190" height="90" as="geometry"/>
                </mxCell>
                <mxCell id="28" value="Analizar las necesidades y objetivos del negocio para obtener un conjunto de APIs que aporten valor" style="shape=ext;rounded=1;html=1;whiteSpace=wrap;dashed=1;fillColor=default;shadow=1;glass=0;" parent="1" vertex="1">
                    <mxGeometry x="120" y="270" width="120" height="90" as="geometry"/>
                </mxCell>
                <mxCell id="73" style="edgeStyle=elbowEdgeStyle;html=1;entryX=0.5;entryY=0;entryDx=0;entryDy=0;strokeColor=default;shadow=1;" parent="1" source="43" target="72" edge="1">
                    <mxGeometry relative="1" as="geometry"/>
                </mxCell>
                <mxCell id="43" value="Se realiza la definición de la interfce&amp;nbsp;en el lenguaje de definición de APIs" style="shape=ext;rounded=1;html=1;whiteSpace=wrap;dashed=1;fillColor=default;shadow=1;" parent="1" vertex="1">
                    <mxGeometry x="480" y="260" width="110" height="90" as="geometry"/>
                </mxCell>
                <mxCell id="70" style="edgeStyle=elbowEdgeStyle;html=1;shadow=1;" parent="1" source="44" target="61" edge="1">
                    <mxGeometry relative="1" as="geometry"/>
                </mxCell>
                <mxCell id="44" value="&lt;div&gt;&lt;span&gt;Preparación del entorno de pruebas (Sandbox)&lt;/span&gt;&lt;br&gt;&lt;/div&gt;" style="shape=ext;rounded=1;html=1;whiteSpace=wrap;dashed=1;fillColor=default;shadow=1;" parent="1" vertex="1">
                    <mxGeometry x="717" y="260" width="110" height="90" as="geometry"/>
                </mxCell>
                <mxCell id="67" style="edgeStyle=none;html=1;shadow=1;" parent="1" source="45" target="64" edge="1">
                    <mxGeometry relative="1" as="geometry"/>
                </mxCell>
                <mxCell id="68" style="edgeStyle=none;html=1;shadow=1;" parent="1" source="45" target="63" edge="1">
                    <mxGeometry relative="1" as="geometry"/>
                </mxCell>
                <mxCell id="45" value="Desarrollo de la lógica de negocio, partiendo de la definición de laAPI" style="shape=ext;rounded=1;html=1;whiteSpace=wrap;dashed=1;fillColor=default;shadow=1;" parent="1" vertex="1">
                    <mxGeometry x="600" y="260" width="110" height="90" as="geometry"/>
                </mxCell>
                <mxCell id="51" value="Publicación en catálogo, soporte a desarrolladores, feedback" style="shape=ext;rounded=1;html=1;whiteSpace=wrap;dashed=1;fillColor=default;shadow=1;" parent="1" vertex="1">
                    <mxGeometry x="840" y="260" width="120" height="90" as="geometry"/>
                </mxCell>
                <mxCell id="52" value="Monitorización y analíticas&lt;br&gt;funcional y técnica, KPI" style="shape=ext;rounded=1;html=1;whiteSpace=wrap;dashed=1;fillColor=default;shadow=1;" parent="1" vertex="1">
                    <mxGeometry x="980" y="260" width="180" height="90" as="geometry"/>
                </mxCell>
                <mxCell id="53" value="Cuando este API deja de tener utilidad para los consumidores" style="shape=ext;rounded=1;html=1;whiteSpace=wrap;dashed=1;fillColor=default;shadow=1;" parent="1" vertex="1">
                    <mxGeometry x="1170" y="260" width="120" height="90" as="geometry"/>
                </mxCell>
                <mxCell id="56" style="edgeStyle=orthogonalEdgeStyle;rounded=0;orthogonalLoop=1;jettySize=auto;html=1;shadow=1;" parent="1" source="57" edge="1">
                    <mxGeometry relative="1" as="geometry">
                        <mxPoint x="830" y="250" as="targetPoint"/>
                        <Array as="points">
                            <mxPoint x="830" y="420"/>
                        </Array>
                    </mxGeometry>
                </mxCell>
                <mxCell id="57" value="" style="shape=actor;whiteSpace=wrap;html=1;shadow=1;fillColor=#ffffff;gradientColor=none;" parent="1" vertex="1">
                    <mxGeometry x="870" y="380" width="40" height="60" as="geometry"/>
                </mxCell>
                <mxCell id="58" value="QA" style="text;html=1;align=center;verticalAlign=middle;resizable=0;points=[];autosize=1;shadow=1;" parent="1" vertex="1">
                    <mxGeometry x="875" y="440" width="30" height="20" as="geometry"/>
                </mxCell>
                <mxCell id="60" value="Development&lt;br&gt;team / Testing" style="text;html=1;align=center;verticalAlign=middle;resizable=0;points=[];autosize=1;shadow=1;" parent="1" vertex="1">
                    <mxGeometry x="720" y="470" width="90" height="30" as="geometry"/>
                </mxCell>
                <mxCell id="69" style="edgeStyle=elbowEdgeStyle;html=1;entryX=0.4;entryY=0.95;entryDx=0;entryDy=0;entryPerimeter=0;shadow=1;" parent="1" source="61" target="66" edge="1">
                    <mxGeometry relative="1" as="geometry">
                        <Array as="points">
                            <mxPoint x="674" y="440"/>
                        </Array>
                    </mxGeometry>
                </mxCell>
                <mxCell id="61" value="" style="shape=actor;whiteSpace=wrap;html=1;shadow=1;fillColor=#ffffff;gradientColor=none;" parent="1" vertex="1">
                    <mxGeometry x="752" y="406" width="40" height="60" as="geometry"/>
                </mxCell>
                <mxCell id="63" value="" style="shape=mxgraph.bpmn.service_task;html=1;outlineConnect=0;shadow=1;fillColor=#ffffff;gradientColor=none;" parent="1" vertex="1">
                    <mxGeometry x="660" y="380" width="24" height="26" as="geometry"/>
                </mxCell>
                <mxCell id="64" value="" style="shape=mxgraph.bpmn.service_task;html=1;outlineConnect=0;shadow=1;fillColor=#ffffff;gradientColor=none;" parent="1" vertex="1">
                    <mxGeometry x="608" y="380" width="24" height="26" as="geometry"/>
                </mxCell>
                <mxCell id="65" value="SDK" style="text;html=1;align=center;verticalAlign=middle;resizable=0;points=[];autosize=1;shadow=1;" parent="1" vertex="1">
                    <mxGeometry x="600" y="404" width="40" height="20" as="geometry"/>
                </mxCell>
                <mxCell id="66" value="Sandbox" style="text;html=1;align=center;verticalAlign=middle;resizable=0;points=[];autosize=1;shadow=1;" parent="1" vertex="1">
                    <mxGeometry x="650" y="404" width="60" height="20" as="geometry"/>
                </mxCell>
                <mxCell id="71" value="API Designer" style="text;html=1;align=center;verticalAlign=middle;resizable=0;points=[];autosize=1;shadow=1;" parent="1" vertex="1">
                    <mxGeometry x="480" y="456" width="90" height="20" as="geometry"/>
                </mxCell>
                <mxCell id="72" value="" style="shape=actor;whiteSpace=wrap;html=1;shadow=1;fillColor=#ffffff;gradientColor=none;" parent="1" vertex="1">
                    <mxGeometry x="505" y="396" width="40" height="60" as="geometry"/>
                </mxCell>
                <mxCell id="80" value="" style="shape=actor;whiteSpace=wrap;html=1;shadow=1;fillColor=#ffffff;gradientColor=none;" parent="1" vertex="1">
                    <mxGeometry x="50" y="386" width="40" height="60" as="geometry"/>
                </mxCell>
                <mxCell id="81" style="edgeStyle=orthogonalEdgeStyle;rounded=0;orthogonalLoop=1;jettySize=auto;html=1;entryX=0.5;entryY=1;entryDx=0;entryDy=0;shadow=1;" parent="1" edge="1">
                    <mxGeometry relative="1" as="geometry">
                        <mxPoint x="90" y="434" as="sourcePoint"/>
                        <mxPoint x="110" y="366" as="targetPoint"/>
                        <Array as="points">
                            <mxPoint x="110" y="434"/>
                        </Array>
                    </mxGeometry>
                </mxCell>
                <mxCell id="82" value="" style="shape=actor;whiteSpace=wrap;html=1;shadow=1;fillColor=#ffffff;gradientColor=none;" parent="1" vertex="1">
                    <mxGeometry x="40" y="386" width="40" height="60" as="geometry"/>
                </mxCell>
                <mxCell id="83" value="Participantes" style="text;html=1;align=center;verticalAlign=middle;resizable=0;points=[];autosize=1;shadow=1;" parent="1" vertex="1">
                    <mxGeometry x="10" y="446" width="80" height="20" as="geometry"/>
                </mxCell>
                <mxCell id="84" value="" style="shape=actor;whiteSpace=wrap;html=1;shadow=1;fillColor=#ffffff;gradientColor=none;" parent="1" vertex="1">
                    <mxGeometry x="30" y="386" width="40" height="60" as="geometry"/>
                </mxCell>
                <mxCell id="85" value="" style="shape=actor;whiteSpace=wrap;html=1;shadow=1;fillColor=#ffffff;gradientColor=none;" parent="1" vertex="1">
                    <mxGeometry x="20" y="386" width="40" height="60" as="geometry"/>
                </mxCell>
            </root>
        </mxGraphModel>
    </diagram>
</mxfile>